# File created by Blade
# Date/Time:  Wed Jan 21 19:09:01 2015
#---------------------------------------------------------
:version 1.10
:name HOM
:units
  mass 1.0
  length 1.000000
  angle deg
:documentation
     Acclaim Skeleton File
:root
   axis xyz
   order TX TY TZ RX RY RZ
   position 0.000000 0.000000 0.000000
   orientation 0 0 0
:bonedata
   begin
      id 1
      name RightUpLeg_dum
      direction -1.000000 0.000000 0.000000
      length 3.693983
      axis 0.0 0.0 0.0 xyz
   end
   begin
      id 2
      name LeftUpLeg_dum
      direction 1.000000 0.000000 0.000000
      length 3.693983
      axis 0.0 0.0 0.0 xyz
   end
   begin
      id 3
      name Spine_dum
      direction 0.000000 1.000000 0.000000
      length 2.392956
      axis 0.0 0.0 0.0 xyz
   end
   begin
      id 4
      name RightUpLeg
      direction 0.000000 -1.000000 0.000000
      length 15.795667
      axis 0.0 0.0 0.0 xyz
      dof rx ry rz
   end
   begin
      id 5
      name RightLeg
      direction 0.000000 -1.000000 0.000000
      length 14.766989
      axis 0.0 0.0 0.0 xyz
      dof rx ry rz
   end
   begin
      id 6
      name RightFoot
      direction 0.000000 -0.258819 0.965926
      length 4.962790
      axis 15.0 0.0 0.0 xyz
      dof rx ry rz
   end
   begin
      id 7
      name RightToeBase
      direction 0.000000 0.000000 1.000000
      length 2.952750
      axis 0.0 0.0 0.0 xyz
      dof rx ry rz
   end
   begin
      id 8
      name LeftUpLeg
      direction 0.000000 -1.000000 0.000000
      length 15.795667
      axis 0.0 0.0 0.0 xyz
      dof rx ry rz
   end
   begin
      id 9
      name LeftLeg
      direction 0.000000 -1.000000 0.000000
      length 14.766989
      axis 0.0 0.0 0.0 xyz
      dof rx ry rz
   end
   begin
      id 10
      name LeftFoot
      direction 0.000000 -0.258819 0.965926
      length 4.962790
      axis 15.0 0.0 0.0 xyz
      dof rx ry rz
   end
   begin
      id 11
      name LeftToeBase
      direction 0.000000 0.000000 1.000000
      length 2.952750
      axis 0.0 0.0 0.0 xyz
      dof rx ry rz
   end
   begin
      id 12
      name Spine
      direction 0.000000 1.000000 0.000000
      length 0.000000
      axis 0.0 0.0 0.0 xyz
      dof rx ry rz
   end
   begin
      id 13
      name Spine_dum1
      direction 0.000000 1.000000 0.000000
      length 13.207411
      axis 0.0 0.0 0.0 xyz
   end
   begin
      id 14
      name Spine_dum2
      direction 0.000000 1.000000 0.000000
      length 13.207411
      axis 0.0 0.0 0.0 xyz
   end
   begin
      id 15
      name Spine_dum3
      direction 0.000000 1.000000 0.000000
      length 19.250100
      axis 0.0 0.0 0.0 xyz
   end
   begin
      id 16
      name RightShoulder
      direction -1.000000 0.000000 0.000000
      length 8.140465
      axis 0.0 0.0 90.0 xyz
      dof rx ry rz
   end
   begin
      id 17
      name RightArm
      direction -1.000000 0.000000 0.000000
      length 10.649840
      axis 0.0 0.0 90.0 xyz
      dof rx ry rz
   end
   begin
      id 18
      name RightForeArm
      direction -1.000000 0.000000 0.000000
      length 8.304624
      axis 0.0 0.0 90.0 xyz
      dof ry rz rx
   end
   begin
      id 19
      name RightHand
      direction -1.000000 0.000000 0.000000
      length 0.000000
      axis 0.0 0.0 90.0 xyz
      dof rx ry rz
   end
   begin
      id 20
      name RightHand_dum1
      direction -1.000000 0.000000 0.000000
      length 3.937000
      axis 0.0 0.0 90.0 xyz
   end
   begin
      id 21
      name RightHand_dum2
      direction 0.000000 0.000000 0.000000
      length 0.000000
      axis 0.0 0.0 90.0 xyz
   end
   begin
      id 22
      name RightHandThumb1
      direction 0.000000 0.000000 1.000000
      length 3.937000
      axis 0.0 0.0 90.0 xyz
      dof rx rz ry
   end
   begin
      id 23
      name LeftShoulder
      direction 1.000000 0.000000 0.000000
      length 8.140465
      axis 0.0 0.0 -90.0 xyz
      dof rx ry rz
   end
   begin
      id 24
      name LeftArm
      direction 1.000000 0.000000 0.000000
      length 10.649840
      axis 0.0 0.0 -90.0 xyz
      dof rx ry rz
   end
   begin
      id 25
      name LeftForeArm
      direction 1.000000 0.000000 0.000000
      length 8.304624
      axis 0.0 0.0 -90.0 xyz
      dof ry rz rx
   end
   begin
      id 26
      name LeftHand
      direction 1.000000 0.000000 0.000000
      length 0.000000
      axis 0.0 0.0 -90.0 xyz
      dof rx ry rz
   end
   begin
      id 27
      name LeftHand_dum1
      direction 1.000000 0.000000 0.000000
      length 3.937000
      axis 0.0 0.0 -90.0 xyz
   end
   begin
      id 28
      name LeftHand_dum2
      direction 0.000000 0.000000 0.000000
      length 0.000000
      axis 0.0 0.0 -90.0 xyz
   end
   begin
      id 29
      name LeftHandThumb1
      direction 0.000000 0.000000 1.000000
      length 3.937000
      axis 0.0 0.0 -90.0 xyz
      dof rx rz ry
   end
   begin
      id 30
      name Head
      direction 0.000000 1.000000 0.000000
      length 4.527550
      axis 0.0 0.0 0.0 xyz
      dof rx ry rz
   end
:hierarchy
   begin
      root RightUpLeg_dum LeftUpLeg_dum Spine_dum
      RightUpLeg_dum RightUpLeg
      LeftUpLeg_dum LeftUpLeg
      Spine_dum Spine
      RightUpLeg RightLeg
      RightLeg RightFoot
      RightFoot RightToeBase
      LeftUpLeg LeftLeg
      LeftLeg LeftFoot
      LeftFoot LeftToeBase
      Spine Spine_dum1 Spine_dum2 Spine_dum3
      Spine_dum1 RightShoulder
      Spine_dum2 LeftShoulder
      Spine_dum3 Head
      RightShoulder RightArm
      RightArm RightForeArm
      RightForeArm RightHand
      RightHand RightHand_dum1 RightHand_dum2
      RightHand_dum2 RightHandThumb1
      LeftShoulder LeftArm
      LeftArm LeftForeArm
      LeftForeArm LeftHand
      LeftHand LeftHand_dum1 LeftHand_dum2
      LeftHand_dum2 LeftHandThumb1
   end

# File created by Blade
# Date/Time:  Wed Jan 21 19:08:52 2015
# Frame Rate: 120.000 fps
#------------------------------------------------------
:FULLY-SPECIFIED
:DEGREES
526
root 0.252094 31.885917 -7.361115 66.344378 28.000339 4.144940
RightUpLeg -70.995872 11.742304 -1.217228
RightLeg 5.803699 -0.000000 -0.000000
RightFoot -4.824511 -0.146699 1.734628
RightToeBase 18.559541 -0.000000 -0.000000
LeftUpLeg -54.785731 -13.294667 0.611735
LeftLeg -3.576787 -0.000000 0.000000
LeftFoot -6.707031 -21.635611 -19.108069
LeftToeBase 21.672374 -0.000000 -0.000000
Spine -34.740932 -36.235053 -13.668276
RightShoulder -26.716354 13.897810 -74.861549
RightArm -12.190043 -17.207585 22.581954
RightForeArm 10.177398 -0.000000 -9.640518
RightHand 10.486208 0.000000 3.724057
RightHandThumb1 -24.326973 -0.000000 -32.862282
LeftShoulder 0.413393 -1.746756 1.439527
LeftArm 25.692433 20.063906 -69.613758
LeftForeArm 11.461021 0.000000 -7.132276
LeftHand -20.085452 -0.000000 6.510344
LeftHandThumb1 -26.253704 0.000000 33.147579
Head -9.032809 -2.440458 -32.173543
527
root 0.239228 31.884447 -7.392375 66.377261 27.939478 4.128208
RightUpLeg -71.091162 11.744693 -1.231801
RightLeg 5.786880 -0.000000 -0.000000
RightFoot -4.757473 -0.062492 1.534965
RightToeBase 18.512831 -0.000000 -0.000000
LeftUpLeg -54.860372 -13.219904 0.529676
LeftLeg -3.582488 -0.000000 0.000000
LeftFoot -6.690160 -21.784408 -19.541241
LeftToeBase 21.675162 -0.000000 -0.000000
Spine -34.751313 -36.245380 -13.669128
RightShoulder -26.762089 13.948210 -74.910660
RightArm -12.164112 -17.338628 22.632579
RightForeArm 10.235154 -0.000000 -9.644817
RightHand 10.587287 0.000000 3.697991
RightHandThumb1 -24.326973 -0.000000 -32.862282
LeftShoulder 0.331046 -1.731076 1.444772
LeftArm 25.616649 20.041101 -69.456884
LeftForeArm 11.413016 -0.000000 -7.050124
LeftHand -19.987681 -0.000000 6.556550
LeftHandThumb1 -26.253704 0.000000 33.147579
Head -9.081518 -2.391894 -32.154994
528
root 0.224124 31.882869 -7.425600 66.384357 27.907006 4.115418
RightUpLeg -71.173787 11.736056 -1.222261
RightLeg 5.794508 -0.000000 -0.000000
RightFoot -4.755134 0.047507 1.610077
RightToeBase 18.657427 -0.000000 -0.000000
LeftUpLeg -54.936320 -13.161693 0.474373
LeftLeg -3.547348 -0.000000 0.000000
LeftFoot -6.712507 -21.908947 -20.094347
LeftToeBase 21.662873 -0.000000 -0.000000
Spine -34.718256 -36.261567 -13.677453
RightShoulder -26.751287 13.950612 -74.920093
RightArm -12.177069 -17.335215 22.672004
RightForeArm 10.210943 -0.000000 -9.622782
RightHand 10.595520 -0.000000 3.743643
RightHandThumb1 -24.326973 -0.000000 -32.862282
LeftShoulder 0.268373 -1.695043 1.439841
LeftArm 25.546079 19.842824 -69.340422
LeftForeArm 11.633431 -0.000000 -6.935434
LeftHand -20.117434 -0.000000 6.181937
LeftHandThumb1 -26.253704 0.000000 33.147579
Head -9.111870 -2.360446 -32.132343
529
root 0.209805 31.881583 -7.458257 66.414307 27.852947 4.110453
RightUpLeg -71.303840 11.764218 -1.314463
RightLeg 5.838961 -0.000000 -0.000000
RightFoot -4.692117 0.015435 1.429425
RightToeBase 18.441812 -0.000000 -0.000000
LeftUpLeg -55.023694 -13.099440 0.397130
LeftLeg -3.532435 -0.000000 0.000000
LeftFoot -6.737377 -22.015977 -20.659124
LeftToeBase 21.236082 -0.000000 -0.000000
Spine -34.717761 -36.277721 -13.687718
RightShoulder -26.757003 14.033261 -74.980479
RightArm -12.200962 -17.402884 22.705974
RightForeArm 10.088599 -0.000000 -9.597088
RightHand 10.125768 -0.000000 4.393647
RightHandThumb1 -24.326973 -0.000000 -32.862282
LeftShoulder 0.187232 -1.655322 1.447353
LeftArm 25.505995 19.710899 -69.210167
LeftForeArm 11.614485 0.000000 -6.863518
LeftHand -20.110391 -0.000000 6.579066
LeftHandThumb1 -26.253704 0.000000 33.147579
Head -9.131639 -2.306401 -32.134120
530
root 0.194074 31.881060 -7.492803 66.449660 27.869488 4.111764
RightUpLeg -71.435870 11.783631 -1.399718
RightLeg 5.873601 -0.000000 -0.000000
RightFoot -4.641468 -0.089342 1.363156
RightToeBase 18.294714 -0.000000 -0.000000
LeftUpLeg -55.130774 -13.031207 0.346901
LeftLeg -3.478275 -0.000000 0.000000
LeftFoot -6.737884 -22.260347 -21.645815
LeftToeBase 21.126551 -0.000000 -0.000000
Spine -34.686698 -36.312189 -13.655763
RightShoulder -26.780268 14.022505 -74.983021
RightArm -12.153094 -17.392525 22.716081
RightForeArm 10.121394 -0.000000 -9.605703
RightHand 10.037203 -0.000000 4.498817
RightHandThumb1 -24.326973 -0.000000 -32.862282
LeftShoulder 0.166547 -1.673709 1.464363
LeftArm 25.384547 19.682569 -69.061920
LeftForeArm 11.673041 -0.000000 -6.729236
LeftHand -20.170597 -0.000000 6.570685
LeftHandThumb1 -26.253704 0.000000 33.147579
Head -9.196129 -2.264250 -32.140005
531
root 0.177430 31.878409 -7.523772 66.483917 27.862626 4.108514
RightUpLeg -71.566624 11.810619 -1.473425
RightLeg 5.907728 -0.000000 -0.000000
RightFoot -4.627889 -0.157638 1.280604
RightToeBase 18.285432 -0.000000 -0.000000
LeftUpLeg -55.213032 -12.927591 0.248668
LeftLeg -3.457359 -0.000000 0.000000
LeftFoot -6.688952 -22.508857 -22.523289
LeftToeBase 20.817423 -0.000000 -0.000000
Spine -34.672661 -36.315556 -13.660446
RightShoulder -26.772980 14.052439 -75.020783
RightArm -12.165015 -17.434629 22.746000
RightForeArm 10.191663 -0.000000 -9.600300
RightHand 10.016488 -0.000000 4.525205
RightHandThumb1 -24.326973 -0.000000 -32.862282
LeftShoulder 0.147237 -1.572306 1.474072
LeftArm 25.407588 19.569015 -68.875950
LeftForeArm 11.719063 0.000000 -6.679847
LeftHand -20.093640 -0.000000 6.282573
LeftHandThumb1 -26.253704 0.000000 33.147579
Head -9.203006 -2.241000 -32.131475
532
root 0.158620 31.876729 -7.555180 66.531154 27.861471 4.112532
RightUpLeg -71.725387 11.852991 -1.593181
RightLeg 5.973835 -0.000000 -0.000000
RightFoot -4.552690 -0.311686 1.061363
RightToeBase 17.972391 -0.000000 -0.000000
LeftUpLeg -55.306485 -12.789901 0.114882
LeftLeg -3.422260 -0.000000 0.000000
LeftFoot -6.606936 -22.839602 -23.732080
LeftToeBase 20.259014 -0.000000 -0.000000
Spine -34.654195 -36.317777 -13.677277
RightShoulder -26.766581 13.965950 -74.999967
RightArm -12.114773 -17.338627 22.745879
RightForeArm 10.242859 0.000000 -9.580043
RightHand 9.896696 -0.000000 4.581003
RightHandThumb1 -24.326973 -0.000000 -32.862282
LeftShoulder 0.098499 -1.422488 1.498442
LeftArm 25.570799 19.545173 -68.642021
LeftForeArm 11.761607 -0.000000 -6.694100
LeftHand -20.191322 -0.000000 6.624656
LeftHandThumb1 -26.253704 0.000000 33.147579
Head -9.206888 -2.256738 -32.103498
533
root 0.138559 31.875800 -7.589514 66.571911 27.892798 4.145009
RightUpLeg -71.880439 11.870956 -1.711798
RightLeg 6.056272 -0.000000 -0.000000
RightFoot -4.516325 -0.478757 1.209373
RightToeBase 17.896319 -0.000000 -0.000000
LeftUpLeg -55.385429 -12.679018 -0.022267
LeftLeg -3.387414 -0.000000 0.000000
LeftFoot -6.458153 -23.183945 -24.643274
LeftToeBase 20.028986 -0.000000 -0.000000
Spine -34.588980 -36.349505 -13.697745
RightShoulder -26.736853 13.924738 -74.984479
RightArm -12.128969 -17.239037 22.743859
RightForeArm 10.338944 -0.000000 -9.545106
RightHand 9.873724 0.000000 4.580028
RightHandThumb1 -24.326973 -0.000000 -32.862282
LeftShoulder 0.070472 -1.374116 1.530837
LeftArm 25.668550 19.667060 -68.378374
LeftForeArm 11.660274 -0.000000 -6.730307
LeftHand -20.181629 -0.000000 6.680894
LeftHandThumb1 -26.253704 0.000000 33.147579
Head -9.223767 -2.253894 -32.080318
534
root 0.122610 31.872768 -7.622301 66.638659 27.930151 4.168854
RightUpLeg -72.057536 11.872448 -1.796253
RightLeg 6.138177 -0.000000 -0.000000
RightFoot -4.500462 -0.587096 1.051766
RightToeBase 17.825955 -0.000000 -0.000000
LeftUpLeg -55.459163 -12.519859 -0.205241
LeftLeg -3.393075 -0.000000 0.000000
LeftFoot -6.104758 -23.707246 -26.333650
LeftToeBase 20.763659 -0.000000 -0.000000
Spine -34.578650 -36.367447 -13.688387
RightShoulder -26.680696 13.938193 -74.976297
RightArm -12.176495 -17.216853 22.736100
RightForeArm 10.503258 -0.000000 -9.551253
RightHand 10.543338 -0.000000 3.926841
RightHandThumb1 -24.326973 -0.000000 -32.862282
LeftShoulder 0.118916 -1.437902 1.577829
LeftArm 25.608977 19.812441 -68.223796
LeftForeArm 11.630397 -0.000000 -6.786205
LeftHand -20.236510 -0.000000 6.843582
LeftHandThumb1 -26.253704 0.000000 33.147579
Head -9.196350 -2.256416 -32.065807
535
root 0.103628 31.869600 -7.654621 66.708297 27.975185 4.218939
RightUpLeg -72.234299 11.870424 -1.905594
RightLeg 6.231378 -0.000000 -0.000000
RightFoot -4.470949 -0.752875 0.852471
RightToeBase 17.652248 -0.000000 -0.000000
LeftUpLeg -55.546183 -12.402754 -0.363693
LeftLeg -3.367076 -0.000000 0.000000
LeftFoot -5.815615 -24.264185 -28.053625
LeftToeBase 21.276900 -0.000000 -0.000000
Spine -34.546153 -36.410467 -13.695456
RightShoulder -26.660500 13.945131 -74.981468
RightArm -12.159154 -17.231741 22.735716
RightForeArm 10.462843 -0.000000 -9.574908
RightHand 10.129364 -0.000000 4.513561
RightHandThumb1 -24.326973 -0.000000 -32.862282
LeftShoulder 0.106407 -1.409860 1.660351
LeftArm 25.807622 20.473292 -67.811747
LeftForeArm 11.188802 -0.000000 -6.912130
LeftHand -20.237221 -0.000000 6.708830
LeftHandThumb1 -26.253704 0.000000 33.147579
Head -9.180591 -2.260380 -32.041757
